<svg viewBox="0 0 100 100" xmlns="http://www.w3.org/2000/svg">
  <path d="M30 40C30 34.4772 34.4772 30 40 30C45.5228 30 50 34.4772 50 40C50 45.5228 45.5228 50 40 50C34.4772 50 30 45.5228 30 40ZM40 34C36.6863 34 34 36.6863 34 40C34 43.3137 36.6863 46 40 46C43.3137 46 46 43.3137 46 40C46 36.6863 43.3137 34 40 34Z" fill="#D4AF37"/>
  <path d="M30 60C30 54.4772 34.4772 50 40 50C45.5228 50 50 54.4772 50 60C50 65.5228 45.5228 70 40 70C34.4772 70 30 65.5228 30 60ZM40 54C36.6863 54 34 56.6863 34 60C34 63.3137 36.6863 66 40 66C43.3137 66 46 63.3137 46 60C46 56.6863 43.3137 54 40 54Z" fill="#D4AF37"/>
  <path d="M48 50L85 30L87 32L52 50L87 68L85 70L48 50Z" fill="#D4AF37"/>
</svg>
